<mxfile host="app.diagrams.net" modified="2024-03-27T19:50:18.086Z" agent="Mozilla/5.0 (Windows NT 10.0; Win64; x64) AppleWebKit/537.36 (KHTML, like Gecko) Chrome/123.0.0.0 Safari/537.36" etag="cZc0lAL01V_8WrV4ovUV" version="24.2.0" type="google">
  <diagram name="‫עמוד-1‬" id="wQ_-TfSlxAOYlBPtAlUJ">
    <mxGraphModel grid="1" page="1" gridSize="10" guides="1" tooltips="1" connect="1" arrows="1" fold="1" pageScale="1" pageWidth="3300" pageHeight="2339" math="0" shadow="0">
      <root>
        <mxCell id="0" />
        <mxCell id="1" parent="0" />
        <mxCell id="AIO7DimZ_60QHb_3-uGw-20" value="" style="rounded=0;whiteSpace=wrap;html=1;gradientColor=none;" vertex="1" parent="1">
          <mxGeometry x="1100" y="620" width="720" height="480" as="geometry" />
        </mxCell>
        <mxCell id="AIO7DimZ_60QHb_3-uGw-7" value="" style="rounded=0;whiteSpace=wrap;html=1;" vertex="1" parent="1">
          <mxGeometry x="1100" y="1140" width="590" height="435" as="geometry" />
        </mxCell>
        <mxCell id="AIO7DimZ_60QHb_3-uGw-8" value="Reverse Proxy" style="text;html=1;strokeColor=none;fillColor=none;align=center;verticalAlign=middle;whiteSpace=wrap;rounded=0;" vertex="1" parent="1">
          <mxGeometry x="1280" y="640" width="100" height="30" as="geometry" />
        </mxCell>
        <mxCell id="AIO7DimZ_60QHb_3-uGw-9" value="Detect &amp;amp; Defend Slowloris" style="rounded=0;whiteSpace=wrap;html=1;direction=west;flipV=1;flipH=1;" vertex="1" parent="1">
          <mxGeometry x="1325" y="1390" width="140" height="60" as="geometry" />
        </mxCell>
        <mxCell id="AIO7DimZ_60QHb_3-uGw-10" value="&lt;font style=&quot;font-size: 17px;&quot;&gt;Detect &amp;amp; Defend DDOS&lt;/font&gt;" style="rounded=0;whiteSpace=wrap;html=1;direction=west;flipV=1;flipH=1;" vertex="1" parent="1">
          <mxGeometry x="1325" y="1225" width="140" height="60" as="geometry" />
        </mxCell>
        <mxCell id="AIO7DimZ_60QHb_3-uGw-11" value="&lt;font style=&quot;font-size: 17px;&quot;&gt;Detect &amp;amp; Defend Port Scanning&lt;/font&gt;" style="rounded=0;whiteSpace=wrap;html=1;direction=west;flipV=1;flipH=1;" vertex="1" parent="1">
          <mxGeometry x="1325" y="1305" width="140" height="60" as="geometry" />
        </mxCell>
        <mxCell id="AIO7DimZ_60QHb_3-uGw-48" style="edgeStyle=orthogonalEdgeStyle;rounded=0;orthogonalLoop=1;jettySize=auto;html=1;exitX=0.25;exitY=0;exitDx=0;exitDy=0;entryX=0.5;entryY=1;entryDx=0;entryDy=0;" edge="1" parent="1" source="AIO7DimZ_60QHb_3-uGw-18" target="AIO7DimZ_60QHb_3-uGw-43">
          <mxGeometry relative="1" as="geometry">
            <Array as="points">
              <mxPoint x="1640" y="1515" />
              <mxPoint x="1214" y="1515" />
            </Array>
          </mxGeometry>
        </mxCell>
        <mxCell id="AIO7DimZ_60QHb_3-uGw-50" style="edgeStyle=orthogonalEdgeStyle;rounded=0;orthogonalLoop=1;jettySize=auto;html=1;entryX=0;entryY=0.5;entryDx=0;entryDy=0;" edge="1" parent="1" source="AIO7DimZ_60QHb_3-uGw-18" target="AIO7DimZ_60QHb_3-uGw-11">
          <mxGeometry relative="1" as="geometry" />
        </mxCell>
        <mxCell id="AIO7DimZ_60QHb_3-uGw-18" value="&lt;font style=&quot;font-size: 19px;&quot;&gt;Logic&lt;/font&gt;" style="rounded=0;whiteSpace=wrap;html=1;direction=west;flipV=1;flipH=1;" vertex="1" parent="1">
          <mxGeometry x="1550" y="1305" width="120" height="60" as="geometry" />
        </mxCell>
        <mxCell id="AIO7DimZ_60QHb_3-uGw-59" style="edgeStyle=orthogonalEdgeStyle;rounded=0;orthogonalLoop=1;jettySize=auto;html=1;entryX=1;entryY=0.5;entryDx=0;entryDy=0;" edge="1" parent="1" source="AIO7DimZ_60QHb_3-uGw-26" target="AIO7DimZ_60QHb_3-uGw-55">
          <mxGeometry relative="1" as="geometry" />
        </mxCell>
        <mxCell id="AIO7DimZ_60QHb_3-uGw-62" style="edgeStyle=orthogonalEdgeStyle;rounded=0;orthogonalLoop=1;jettySize=auto;html=1;" edge="1" parent="1" source="AIO7DimZ_60QHb_3-uGw-26" target="AIO7DimZ_60QHb_3-uGw-61">
          <mxGeometry relative="1" as="geometry" />
        </mxCell>
        <mxCell id="AIO7DimZ_60QHb_3-uGw-121" style="edgeStyle=orthogonalEdgeStyle;rounded=0;orthogonalLoop=1;jettySize=auto;html=1;exitX=0.25;exitY=1;exitDx=0;exitDy=0;entryX=0.5;entryY=0;entryDx=0;entryDy=0;" edge="1" parent="1" source="AIO7DimZ_60QHb_3-uGw-26" target="AIO7DimZ_60QHb_3-uGw-117">
          <mxGeometry relative="1" as="geometry" />
        </mxCell>
        <mxCell id="AIO7DimZ_60QHb_3-uGw-26" value="&lt;font style=&quot;font-size: 21px;&quot;&gt;Traffic&lt;/font&gt;" style="rounded=0;whiteSpace=wrap;html=1;" vertex="1" parent="1">
          <mxGeometry x="1410" y="730" width="120" height="60" as="geometry" />
        </mxCell>
        <mxCell id="AIO7DimZ_60QHb_3-uGw-31" value="Attacks Detection" style="text;html=1;strokeColor=none;fillColor=none;align=center;verticalAlign=middle;whiteSpace=wrap;rounded=0;" vertex="1" parent="1">
          <mxGeometry x="1335" y="1165" width="100" height="30" as="geometry" />
        </mxCell>
        <mxCell id="AIO7DimZ_60QHb_3-uGw-43" value="&lt;font style=&quot;font-size: 15px;&quot;&gt;Implement On The Reverse Proxy&lt;/font&gt;" style="rounded=0;whiteSpace=wrap;html=1;" vertex="1" parent="1">
          <mxGeometry x="1154" y="1305" width="120" height="60" as="geometry" />
        </mxCell>
        <mxCell id="AIO7DimZ_60QHb_3-uGw-52" value="" style="endArrow=classic;html=1;rounded=0;exitX=0.5;exitY=0;exitDx=0;exitDy=0;entryX=0;entryY=0.5;entryDx=0;entryDy=0;" edge="1" parent="1" source="AIO7DimZ_60QHb_3-uGw-18" target="AIO7DimZ_60QHb_3-uGw-9">
          <mxGeometry width="50" height="50" relative="1" as="geometry">
            <mxPoint x="1440" y="1484.48" as="sourcePoint" />
            <mxPoint x="1597.52" y="1440" as="targetPoint" />
            <Array as="points">
              <mxPoint x="1610" y="1420" />
            </Array>
          </mxGeometry>
        </mxCell>
        <mxCell id="AIO7DimZ_60QHb_3-uGw-54" value="" style="endArrow=classic;html=1;rounded=0;entryX=0;entryY=0.5;entryDx=0;entryDy=0;exitX=0.5;exitY=1;exitDx=0;exitDy=0;" edge="1" parent="1" source="AIO7DimZ_60QHb_3-uGw-18" target="AIO7DimZ_60QHb_3-uGw-10">
          <mxGeometry width="50" height="50" relative="1" as="geometry">
            <mxPoint x="1540" y="1310" as="sourcePoint" />
            <mxPoint x="1570" y="1170" as="targetPoint" />
            <Array as="points">
              <mxPoint x="1610" y="1255" />
            </Array>
          </mxGeometry>
        </mxCell>
        <mxCell id="AIO7DimZ_60QHb_3-uGw-55" value="&lt;font style=&quot;font-size: 15px;&quot;&gt;Starting Detecting Attacks&lt;/font&gt;" style="rounded=0;whiteSpace=wrap;html=1;" vertex="1" parent="1">
          <mxGeometry x="1154" y="730" width="120" height="60" as="geometry" />
        </mxCell>
        <mxCell id="AIO7DimZ_60QHb_3-uGw-57" value="" style="endArrow=none;dashed=1;html=1;dashPattern=1 3;strokeWidth=2;rounded=0;entryX=0.5;entryY=1;entryDx=0;entryDy=0;exitX=0.5;exitY=0;exitDx=0;exitDy=0;" edge="1" parent="1" source="AIO7DimZ_60QHb_3-uGw-43" target="AIO7DimZ_60QHb_3-uGw-55">
          <mxGeometry width="50" height="50" relative="1" as="geometry">
            <mxPoint x="950" y="1050" as="sourcePoint" />
            <mxPoint x="1000" y="1000" as="targetPoint" />
          </mxGeometry>
        </mxCell>
        <mxCell id="AIO7DimZ_60QHb_3-uGw-61" value="&lt;font style=&quot;font-size: 16px;&quot;&gt;Checking General Limits&lt;/font&gt;" style="rounded=0;whiteSpace=wrap;html=1;" vertex="1" parent="1">
          <mxGeometry x="1620" y="730" width="120" height="60" as="geometry" />
        </mxCell>
        <mxCell id="AIO7DimZ_60QHb_3-uGw-63" value="" style="rounded=0;whiteSpace=wrap;html=1;" vertex="1" parent="1">
          <mxGeometry x="1160" y="180" width="550" height="360" as="geometry" />
        </mxCell>
        <mxCell id="AIO7DimZ_60QHb_3-uGw-65" value="&lt;font style=&quot;font-size: 20px;&quot;&gt;General Limits&lt;/font&gt;" style="text;html=1;strokeColor=none;fillColor=none;align=center;verticalAlign=middle;whiteSpace=wrap;rounded=0;" vertex="1" parent="1">
          <mxGeometry x="1510" y="219.5" width="100" height="30" as="geometry" />
        </mxCell>
        <mxCell id="AIO7DimZ_60QHb_3-uGw-77" style="edgeStyle=orthogonalEdgeStyle;rounded=0;orthogonalLoop=1;jettySize=auto;html=1;entryX=1;entryY=0.5;entryDx=0;entryDy=0;" edge="1" parent="1" source="AIO7DimZ_60QHb_3-uGw-16" target="AIO7DimZ_60QHb_3-uGw-75">
          <mxGeometry relative="1" as="geometry" />
        </mxCell>
        <mxCell id="AIO7DimZ_60QHb_3-uGw-86" style="edgeStyle=orthogonalEdgeStyle;rounded=0;orthogonalLoop=1;jettySize=auto;html=1;entryX=0;entryY=0.5;entryDx=0;entryDy=0;" edge="1" parent="1" source="AIO7DimZ_60QHb_3-uGw-16" target="AIO7DimZ_60QHb_3-uGw-66">
          <mxGeometry relative="1" as="geometry" />
        </mxCell>
        <mxCell id="W3QeJF18bcgdVsJFq50y-3" style="edgeStyle=orthogonalEdgeStyle;rounded=0;orthogonalLoop=1;jettySize=auto;html=1;exitX=0.25;exitY=1;exitDx=0;exitDy=0;entryX=1;entryY=0.5;entryDx=0;entryDy=0;" edge="1" parent="1" source="AIO7DimZ_60QHb_3-uGw-16" target="AIO7DimZ_60QHb_3-uGw-70">
          <mxGeometry relative="1" as="geometry" />
        </mxCell>
        <mxCell id="AIO7DimZ_60QHb_3-uGw-16" value="&lt;font style=&quot;font-size: 17px;&quot;&gt;Socket Limits&lt;/font&gt;" style="rounded=0;whiteSpace=wrap;html=1;" vertex="1" parent="1">
          <mxGeometry x="1300" y="270" width="120" height="60" as="geometry" />
        </mxCell>
        <mxCell id="AIO7DimZ_60QHb_3-uGw-66" value="&lt;font style=&quot;font-size: 16px;&quot;&gt;Implement General Limits&lt;/font&gt;" style="rounded=0;whiteSpace=wrap;html=1;" vertex="1" parent="1">
          <mxGeometry x="1490" y="340" width="120" height="60" as="geometry" />
        </mxCell>
        <mxCell id="AIO7DimZ_60QHb_3-uGw-70" value="&lt;font style=&quot;font-size: 15px;&quot;&gt;Number Of Users On The Proxy&lt;/font&gt;" style="rounded=0;whiteSpace=wrap;html=1;" vertex="1" parent="1">
          <mxGeometry x="1180" y="350" width="120" height="60" as="geometry" />
        </mxCell>
        <mxCell id="AIO7DimZ_60QHb_3-uGw-75" value="&lt;font style=&quot;font-size: 16px;&quot;&gt;Bandwidth Limit (eBPF)&lt;/font&gt;" style="rounded=0;whiteSpace=wrap;html=1;" vertex="1" parent="1">
          <mxGeometry x="1180" y="437.5" width="120" height="60" as="geometry" />
        </mxCell>
        <mxCell id="AIO7DimZ_60QHb_3-uGw-84" style="edgeStyle=orthogonalEdgeStyle;rounded=0;orthogonalLoop=1;jettySize=auto;html=1;exitX=0.5;exitY=1;exitDx=0;exitDy=0;" edge="1" parent="1">
          <mxGeometry relative="1" as="geometry">
            <mxPoint x="1820" y="335" as="sourcePoint" />
            <mxPoint x="1820" y="335" as="targetPoint" />
          </mxGeometry>
        </mxCell>
        <mxCell id="AIO7DimZ_60QHb_3-uGw-89" value="" style="endArrow=none;dashed=1;html=1;dashPattern=1 3;strokeWidth=2;rounded=0;entryX=0.5;entryY=1;entryDx=0;entryDy=0;exitX=0.5;exitY=0;exitDx=0;exitDy=0;" edge="1" parent="1" source="AIO7DimZ_60QHb_3-uGw-61" target="AIO7DimZ_60QHb_3-uGw-66">
          <mxGeometry width="50" height="50" relative="1" as="geometry">
            <mxPoint x="2310" y="470" as="sourcePoint" />
            <mxPoint x="2360" y="420" as="targetPoint" />
            <Array as="points">
              <mxPoint x="1680" y="470" />
              <mxPoint x="1550" y="470" />
            </Array>
          </mxGeometry>
        </mxCell>
        <mxCell id="AIO7DimZ_60QHb_3-uGw-90" value="" style="rounded=0;whiteSpace=wrap;html=1;" vertex="1" parent="1">
          <mxGeometry x="2080" y="755" width="300" height="210" as="geometry" />
        </mxCell>
        <mxCell id="AIO7DimZ_60QHb_3-uGw-91" value="Server" style="text;html=1;strokeColor=none;fillColor=none;align=center;verticalAlign=middle;whiteSpace=wrap;rounded=0;" vertex="1" parent="1">
          <mxGeometry x="2180" y="765" width="100" height="30" as="geometry" />
        </mxCell>
        <mxCell id="AIO7DimZ_60QHb_3-uGw-92" value="&lt;font style=&quot;font-size: 15px;&quot;&gt;Mostly For Testing Output&lt;/font&gt;" style="rounded=0;whiteSpace=wrap;html=1;" vertex="1" parent="1">
          <mxGeometry x="2170" y="830" width="120" height="60" as="geometry" />
        </mxCell>
        <mxCell id="AIO7DimZ_60QHb_3-uGw-93" value="&lt;font style=&quot;font-size: 16px;&quot;&gt;Sending Pure Traffic To Server&lt;/font&gt;" style="rounded=0;whiteSpace=wrap;html=1;" vertex="1" parent="1">
          <mxGeometry x="1620" y="830" width="120" height="60" as="geometry" />
        </mxCell>
        <mxCell id="AIO7DimZ_60QHb_3-uGw-95" value="" style="endArrow=none;dashed=1;html=1;dashPattern=1 3;strokeWidth=2;rounded=0;exitX=1;exitY=0.5;exitDx=0;exitDy=0;entryX=0;entryY=0.5;entryDx=0;entryDy=0;" edge="1" parent="1" source="AIO7DimZ_60QHb_3-uGw-93" target="AIO7DimZ_60QHb_3-uGw-92">
          <mxGeometry width="50" height="50" relative="1" as="geometry">
            <mxPoint x="2000" y="890" as="sourcePoint" />
            <mxPoint x="2050" y="840" as="targetPoint" />
          </mxGeometry>
        </mxCell>
        <mxCell id="AIO7DimZ_60QHb_3-uGw-97" value="" style="endArrow=classic;html=1;rounded=0;entryX=0;entryY=0.5;entryDx=0;entryDy=0;exitX=0.5;exitY=1;exitDx=0;exitDy=0;" edge="1" parent="1" source="AIO7DimZ_60QHb_3-uGw-26" target="AIO7DimZ_60QHb_3-uGw-93">
          <mxGeometry width="50" height="50" relative="1" as="geometry">
            <mxPoint x="1020" y="870" as="sourcePoint" />
            <mxPoint x="1070" y="820" as="targetPoint" />
            <Array as="points">
              <mxPoint x="1470" y="860" />
            </Array>
          </mxGeometry>
        </mxCell>
        <mxCell id="AIO7DimZ_60QHb_3-uGw-98" value="" style="rounded=0;whiteSpace=wrap;html=1;" vertex="1" parent="1">
          <mxGeometry x="760" y="880" width="210" height="375" as="geometry" />
        </mxCell>
        <mxCell id="AIO7DimZ_60QHb_3-uGw-99" value="eBPF" style="text;html=1;strokeColor=none;fillColor=none;align=center;verticalAlign=middle;whiteSpace=wrap;rounded=0;" vertex="1" parent="1">
          <mxGeometry x="815" y="920" width="100" height="30" as="geometry" />
        </mxCell>
        <mxCell id="AIO7DimZ_60QHb_3-uGw-102" value="&lt;font style=&quot;font-size: 14px;&quot;&gt;Communicating With Reverse Proxy&lt;/font&gt;" style="rounded=0;whiteSpace=wrap;html=1;" vertex="1" parent="1">
          <mxGeometry x="805" y="950" width="120" height="60" as="geometry" />
        </mxCell>
        <mxCell id="AIO7DimZ_60QHb_3-uGw-103" value="&lt;font style=&quot;font-size: 18px;&quot;&gt;Blocking IP&lt;/font&gt;" style="rounded=0;whiteSpace=wrap;html=1;" vertex="1" parent="1">
          <mxGeometry x="805" y="1025" width="120" height="60" as="geometry" />
        </mxCell>
        <mxCell id="AIO7DimZ_60QHb_3-uGw-104" value="&lt;font style=&quot;font-size: 18px;&quot;&gt;Limiting Bandwidth&lt;/font&gt;" style="rounded=0;whiteSpace=wrap;html=1;" vertex="1" parent="1">
          <mxGeometry x="805" y="1105" width="120" height="60" as="geometry" />
        </mxCell>
        <mxCell id="AIO7DimZ_60QHb_3-uGw-107" value="" style="endArrow=none;dashed=1;html=1;dashPattern=1 3;strokeWidth=2;rounded=0;entryX=0;entryY=0.5;entryDx=0;entryDy=0;exitX=0;exitY=0.5;exitDx=0;exitDy=0;" edge="1" parent="1" source="AIO7DimZ_60QHb_3-uGw-16" target="AIO7DimZ_60QHb_3-uGw-103">
          <mxGeometry width="50" height="50" relative="1" as="geometry">
            <mxPoint x="380" y="1060" as="sourcePoint" />
            <mxPoint x="660" y="1040" as="targetPoint" />
            <Array as="points">
              <mxPoint x="350" y="310" />
              <mxPoint x="340" y="700" />
              <mxPoint x="330" y="1050" />
            </Array>
          </mxGeometry>
        </mxCell>
        <mxCell id="AIO7DimZ_60QHb_3-uGw-108" value="" style="endArrow=none;dashed=1;html=1;dashPattern=1 3;strokeWidth=2;rounded=0;exitX=0;exitY=0.5;exitDx=0;exitDy=0;entryX=1;entryY=0.5;entryDx=0;entryDy=0;" edge="1" parent="1" source="AIO7DimZ_60QHb_3-uGw-18" target="AIO7DimZ_60QHb_3-uGw-103">
          <mxGeometry width="50" height="50" relative="1" as="geometry">
            <mxPoint x="1810" y="1350" as="sourcePoint" />
            <mxPoint x="1810" y="1330" as="targetPoint" />
            <Array as="points">
              <mxPoint x="1930" y="1330" />
              <mxPoint x="1940" y="1740" />
              <mxPoint x="1020" y="1740" />
              <mxPoint x="1030" y="1055" />
            </Array>
          </mxGeometry>
        </mxCell>
        <mxCell id="AIO7DimZ_60QHb_3-uGw-109" value="" style="endArrow=none;dashed=1;html=1;dashPattern=1 3;strokeWidth=2;rounded=0;entryX=0;entryY=1;entryDx=0;entryDy=0;exitX=1;exitY=0.5;exitDx=0;exitDy=0;" edge="1" parent="1" source="AIO7DimZ_60QHb_3-uGw-102" target="AIO7DimZ_60QHb_3-uGw-26">
          <mxGeometry width="50" height="50" relative="1" as="geometry">
            <mxPoint x="1000" y="860" as="sourcePoint" />
            <mxPoint x="1050" y="810" as="targetPoint" />
          </mxGeometry>
        </mxCell>
        <mxCell id="AIO7DimZ_60QHb_3-uGw-111" value="" style="rounded=0;whiteSpace=wrap;html=1;" vertex="1" parent="1">
          <mxGeometry x="410" y="655" width="300" height="210" as="geometry" />
        </mxCell>
        <mxCell id="AIO7DimZ_60QHb_3-uGw-112" value="Client" style="text;html=1;strokeColor=none;fillColor=none;align=center;verticalAlign=middle;whiteSpace=wrap;rounded=0;" vertex="1" parent="1">
          <mxGeometry x="420" y="680" width="100" height="30" as="geometry" />
        </mxCell>
        <mxCell id="AIO7DimZ_60QHb_3-uGw-113" value="&lt;font style=&quot;font-size: 15px;&quot;&gt;Sending Traffic, Hacker Or Legitimate&lt;/font&gt;" style="rounded=0;whiteSpace=wrap;html=1;" vertex="1" parent="1">
          <mxGeometry x="500" y="730" width="120" height="60" as="geometry" />
        </mxCell>
        <mxCell id="AIO7DimZ_60QHb_3-uGw-116" value="" style="endArrow=none;dashed=1;html=1;dashPattern=1 3;strokeWidth=2;rounded=0;exitX=0.5;exitY=0;exitDx=0;exitDy=0;entryX=0.5;entryY=0;entryDx=0;entryDy=0;" edge="1" parent="1" source="AIO7DimZ_60QHb_3-uGw-113" target="AIO7DimZ_60QHb_3-uGw-26">
          <mxGeometry width="50" height="50" relative="1" as="geometry">
            <mxPoint x="1050" y="680" as="sourcePoint" />
            <mxPoint x="1100" y="630" as="targetPoint" />
            <Array as="points">
              <mxPoint x="560" y="600" />
              <mxPoint x="1470" y="600" />
            </Array>
          </mxGeometry>
        </mxCell>
        <mxCell id="AIO7DimZ_60QHb_3-uGw-117" value="&lt;font style=&quot;font-size: 16px;&quot;&gt;Checking New Incoming New IP&lt;/font&gt;" style="rounded=0;whiteSpace=wrap;html=1;" vertex="1" parent="1">
          <mxGeometry x="1325" y="990" width="120" height="60" as="geometry" />
        </mxCell>
        <mxCell id="AIO7DimZ_60QHb_3-uGw-120" value="" style="endArrow=none;dashed=1;html=1;dashPattern=1 3;strokeWidth=2;rounded=0;exitX=1;exitY=0.25;exitDx=0;exitDy=0;entryX=0;entryY=0.75;entryDx=0;entryDy=0;" edge="1" parent="1" source="AIO7DimZ_60QHb_3-uGw-103" target="AIO7DimZ_60QHb_3-uGw-117">
          <mxGeometry width="50" height="50" relative="1" as="geometry">
            <mxPoint x="930" y="830" as="sourcePoint" />
            <mxPoint x="980" y="780" as="targetPoint" />
          </mxGeometry>
        </mxCell>
      </root>
    </mxGraphModel>
  </diagram>
</mxfile>
